# xmcd CD database file
#
# Track frame offsets:
#	150
#	17110
#	34722
#
# Disc length: 684 seconds
#
# Revision: 0
# Processed by: cddbd v1.5.1PL0 Copyright (c) Steve Scherf et al.
# Submitted via: CDex 1.51
#
DISCID=1a02aa03
DTITLE=リトル・ブギー・マン - オバタリアン
DYEAR=1994
DGENRE=J-Pop
TTITLE0=オバタリアン
TTITLE1=ウォンチュー
TTITLE2=オバタリアン（ダブ・ミックス
EXTD=YEAR: 1994
EXTT0=
EXTT1=
EXTT2=
PLAYORDER=
